<svg xmlns="http://www.w3.org/2000/svg" version="1.1" height="51.05808008195618px" width="426.69656662948114px" viewBox="-10 -10 446.69656662948114 71.05808008195618" content="&lt;mxGraphModel dx=&quot;1930&quot; dy=&quot;410&quot; grid=&quot;1&quot; gridSize=&quot;10&quot; guides=&quot;1&quot; tooltips=&quot;1&quot; connect=&quot;1&quot; arrows=&quot;1&quot; fold=&quot;1&quot; page=&quot;0&quot; pageScale=&quot;1&quot; pageWidth=&quot;827&quot; pageHeight=&quot;1169&quot; math=&quot;0&quot; shadow=&quot;0&quot;&gt;&lt;root&gt;&lt;mxCell id=&quot;0&quot;/&gt;&lt;mxCell id=&quot;1&quot; parent=&quot;0&quot;/&gt;&lt;mxCell id=&quot;4&quot; value=&quot;&quot; style=&quot;shape=cylinder3;whiteSpace=wrap;html=1;boundedLbl=1;backgroundOutline=1;size=13.467679773635808;rotation=91;&quot; vertex=&quot;1&quot; parent=&quot;1&quot;&gt;&lt;mxGeometry x=&quot;70&quot; y=&quot;-150&quot; width=&quot;42.63&quot; height=&quot;425&quot; as=&quot;geometry&quot;/&gt;&lt;/mxCell&gt;&lt;/root&gt;&lt;/mxGraphModel&gt;"><style type="text/css"></style><path d="M 192.03 -173.5 C 192.03 -180.94 201.58 -186.97 213.35 -186.97 C 225.12 -186.97 234.66 -180.94 234.66 -173.5 L 234.66 224.56 C 234.66 228.13 232.42 231.56 228.42 234.08 C 224.42 236.61 219 238.03 213.35 238.03 C 207.7 238.03 202.27 236.61 198.28 234.08 C 194.28 231.56 192.03 228.13 192.03 224.56 Z" fill="#ffffff" stroke="#000000" stroke-miterlimit="10" transform="rotate(91,213.35,25.53)" pointer-events="none"/><path d="M 234.66 -173.5 C 234.66 -166.07 225.12 -160.04 213.35 -160.04 C 201.58 -160.04 192.03 -166.07 192.03 -173.5" fill="none" stroke="#000000" stroke-miterlimit="10" transform="rotate(91,213.35,25.53)" pointer-events="none"/></svg>